<?xml version="1.0" encoding="UTF-8"?>
<svg width="720px" height="720px" viewBox="0 0 720 720" version="1.1" xmlns="http://www.w3.org/2000/svg" xmlns:xlink="http://www.w3.org/1999/xlink">
    <!-- Generator: Sketch 51.1 (57501) - http://www.bohemiancoding.com/sketch -->
    <title>nord-logo-square-white</title>
    <desc>Created with Sketch.</desc>
    <defs></defs>
    <g id="nord-logo-square-white" stroke="none" stroke-width="1" fill="none" fill-rule="evenodd">
        <g id="global/logos/vertical/nordvpn" transform="translate(46.000000, 84.000000)" fill="#FFFFFF">
            <path d="M654.618941,467.867647 C646.647849,467.867647 640.25,461.355882 640.25,453.308824 C640.25,445.314706 646.647849,438.75 654.618941,438.75 C662.590032,438.75 669.040323,445.314706 669.040323,453.308824 C669.040323,461.355882 662.590032,467.867647 654.618941,467.867647 Z M654.618941,441.397059 C648.16865,441.397059 642.976952,446.691176 642.976952,453.308824 C642.976952,459.926471 648.16865,465.220588 654.618941,465.220588 C661.01679,465.220588 666.31337,459.926471 666.31337,453.308824 C666.31337,446.691176 661.01679,441.397059 654.618941,441.397059 Z M652.468844,455.638235 L652.468844,461.620588 L649.060153,461.620588 L649.060153,444.997059 L655.562886,444.997059 C658.76181,444.997059 661.436321,446.691176 661.436321,450.238235 C661.436321,452.726471 660.125286,454.261765 658.289838,455.002941 L661.698528,461.620588 L657.975189,461.620588 L654.98603,455.638235 L652.468844,455.638235 Z M657.975189,450.344118 C657.975189,448.702941 656.611713,448.279412 655.300679,448.279412 L652.468844,448.279412 L652.468844,452.408824 L655.35312,452.408824 C656.611713,452.408824 657.975189,451.879412 657.975189,450.344118 Z" id="®"></path>
            <path d="M70.235,545.625 L21.635,472.725 L21.635,545.625 L0.035,545.625 L0.035,439.92 L25.01,439.92 L70.91,508.905 L70.91,439.92 L92.51,439.92 L92.51,545.625 L70.235,545.625 Z M106.102368,509.715 C106.102368,488.25 123.787368,471.915 145.657368,471.915 C167.392368,471.915 184.807368,487.845 184.807368,509.31 C184.807368,531.045 167.122368,547.245 145.387368,547.245 C123.517368,547.245 106.102368,531.45 106.102368,509.715 Z M127.702368,509.445 C127.702368,520.38 135.667368,527.94 145.522368,527.94 C155.377368,527.94 163.207368,520.38 163.207368,509.445 C163.207368,498.645 155.242368,491.085 145.387368,491.085 C135.532368,491.085 127.702368,498.645 127.702368,509.445 Z M240.789736,473.535 L240.789736,494.19 C237.954736,493.65 234.984736,493.65 234.039736,493.65 C223.914736,493.65 216.894736,500.67 216.894736,514.035 L216.894736,545.625 L196.239736,545.625 L196.239736,473.535 L216.219736,473.535 L216.219736,484.065 L216.489736,484.065 C220.404736,475.83 227.694736,472.725 235.119736,472.725 C236.739736,472.725 239.304736,473.13 240.789736,473.535 Z M373.364472,545.625 L335.159472,439.92 L358.784472,439.92 L386.189472,520.245 L413.729472,439.92 L436.949472,439.92 L398.609472,545.625 L373.364472,545.625 Z M524.791839,473.805 C524.791839,497.16 508.321839,508.365 486.181839,508.365 L469.576839,508.365 L469.576839,545.625 L447.706839,545.625 L447.706839,439.92 L486.991839,439.92 C508.186839,439.92 524.791839,451.395 524.791839,473.805 Z M502.786839,474.345 C502.786839,464.085 494.146839,460.575 485.101839,460.575 L469.576839,460.575 L469.576839,487.98 L485.236839,487.98 C493.876839,487.98 502.786839,484.2 502.786839,474.345 Z M607.774207,545.625 L559.174207,472.725 L559.174207,545.625 L537.574207,545.625 L537.574207,439.92 L562.549207,439.92 L608.449207,508.905 L608.449207,439.92 L630.049207,439.92 L630.049207,545.625 L607.774207,545.625 Z M303.461715,545.625 L303.461715,536.445 L303.191754,536.445 C296.442736,546.3 285.644306,546.975 280.785013,546.975 C259.863056,546.975 246.5,528.885 246.5,509.445 C246.5,491.22 260.402978,472.185 281.054974,472.185 C285.239365,472.185 295.227912,472.995 302.651832,481.77 L302.921793,481.77 L302.921793,435.735 L323.84375,435.735 L323.84375,545.625 L303.461715,545.625 Z M303.47,509.445 C303.47,498.645 295.505,491.22 285.65,491.22 C275.795,491.22 267.83,498.645 267.83,509.445 C267.83,520.38 275.795,527.94 285.65,527.94 C295.505,527.94 303.47,520.38 303.47,509.445 Z" id="NordVPN"></path>
            <path d="M133.95883,356.4 C107.279825,319.378698 91.5458252,273.827465 91.5458252,224.572676 C91.5458252,100.544612 191.311731,0 314.379213,0 C437.446696,0 537.212602,100.544612 537.212602,224.572676 C537.212602,273.827144 521.478807,319.378105 494.800118,356.399277 L387.773512,181.243702 L377.438166,198.830105 L387.924195,247.740842 L314.379213,120.923749 L268.884184,198.337122 L279.475903,247.740842 L240.92598,181.343984 L133.95883,356.4 Z" id="logomark"></path>
        </g>
    </g>
</svg>